<svg xmlns="http://www.w3.org/2000/svg" width="349" height="65" fill="none" viewBox="0 0 349 65"><path fill="#f2f5f9" d="M6.221 21.81V46.7c0 2.357-2.585 3.816-4.64 2.657A3.1 3.1 0 0 1 0 46.672V18.019c0-1.1.587-2.115 1.54-2.664L27.453.412a3.09 3.09 0 0 1 3.086 0L56.284 15.26a3.08 3.08 0 0 1 1.541 2.664v28.198a3.08 3.08 0 0 1-1.54 2.664L30.537 63.633a3.09 3.09 0 0 1-3.087 0l-12.762-7.36a3.08 3.08 0 0 1-1.54-2.663V25.6c0-1.098.587-2.114 1.54-2.664l12.763-7.36a3.09 3.09 0 0 1 3.086 0l12.762 7.36a3.08 3.08 0 0 1 1.541 2.665v13.244a3.08 3.08 0 0 1-1.54 2.664l-12.763 7.36a3.09 3.09 0 0 1-3.087 0l-.142-.083a3.08 3.08 0 0 1-1.54-2.664v-12.94c0-1.098.587-2.114 1.54-2.663l.142-.082a3.09 3.09 0 0 1 3.087 0l.142.082a3.08 3.08 0 0 1 1.54 2.663v2.364c0 2.37 2.572 3.85 4.628 2.664l.56-.323a3.08 3.08 0 0 0 1.54-2.664v-5.926a3.08 3.08 0 0 0-1.54-2.664l-6.87-3.962a3.09 3.09 0 0 0-3.087 0l-6.87 3.962a3.08 3.08 0 0 0-1.54 2.664v20.9c0 1.1.587 2.115 1.54 2.665l6.87 3.961a3.09 3.09 0 0 0 3.087 0l19.69-11.354a3.08 3.08 0 0 0 1.54-2.664V21.81a3.08 3.08 0 0 0-1.54-2.665L30.537 7.792a3.09 3.09 0 0 0-3.087 0L7.762 19.145a3.08 3.08 0 0 0-1.54 2.665"/><g fill="#f56b15" clip-path="url(#a)"><path d="M89.464 49.454q-4.605 0-8.107-2.207t-5.517-6.14-2.015-9.163 2.015-9.115q2.014-3.935 5.613-6.14 3.645-2.208 8.395-2.208 5.325 0 9.163 2.687 3.885 2.639 5.565 7.292l-5.853 2.159q-1.056-2.926-3.358-4.558-2.255-1.63-5.517-1.63-2.975 0-5.229 1.39-2.207 1.392-3.406 3.982-1.151 2.543-1.151 6.14 0 3.6 1.15 6.189 1.2 2.59 3.407 3.982 2.254 1.39 5.229 1.391a12.4 12.4 0 0 0 3.166-.432 8.1 8.1 0 0 0 2.975-1.487q1.391-1.103 2.206-3.022.864-1.92.864-4.893v-1.92l1.391 4.318h-9.594v-5.565h13.72v18.182h-5.47l-.863-5.42 1.056.815a8.6 8.6 0 0 1-2.351 2.974 9.9 9.9 0 0 1-3.406 1.775q-1.871.624-4.078.624m31.247-.288q-3.069 0-5.277-1.008-2.207-1.007-3.645-2.686a11.6 11.6 0 0 1-2.063-3.886 15.7 15.7 0 0 1-.672-4.605q0-2.303.672-4.51a12.6 12.6 0 0 1 2.014-3.981q1.344-1.776 3.455-2.83 2.158-1.104 5.133-1.104 2.782 0 4.845.96 2.063.91 3.406 2.59 1.343 1.63 2.015 3.838.72 2.206.719 4.7 0 .337-.048.96 0 .576-.095 1.248h-16.167q.239 2.542 1.871 3.838 1.678 1.295 4.173 1.295 1.824 0 3.55-.624a10 10 0 0 0 3.07-1.87l2.975 4.029q-1.679 1.295-3.166 2.11-1.488.816-3.119 1.152-1.582.384-3.646.384m4.702-13.289q.096-.384.144-.767.096-.384.096-.72 0-1.007-.384-1.87a4.9 4.9 0 0 0-1.055-1.584 4.3 4.3 0 0 0-1.632-1.007q-.91-.384-2.111-.384-1.774 0-2.974.72-1.199.72-1.823 1.87a6.7 6.7 0 0 0-.719 2.303h12.473zm21.253 13.289q-3.07 0-5.278-1.008-2.207-1.007-3.645-2.686a11.7 11.7 0 0 1-2.063-3.886 15.7 15.7 0 0 1-.672-4.605q0-2.303.672-4.51a12.6 12.6 0 0 1 2.015-3.981q1.342-1.776 3.454-2.83 2.159-1.104 5.133-1.104 2.782 0 4.845.96 2.063.91 3.406 2.59 1.343 1.63 2.015 3.838.72 2.206.719 4.7 0 .337-.047.96 0 .576-.096 1.248h-16.167q.24 2.542 1.871 3.838 1.679 1.295 4.173 1.295 1.824 0 3.55-.624a10 10 0 0 0 3.071-1.87l2.974 4.029q-1.679 1.295-3.166 2.11-1.488.816-3.119 1.152-1.583.384-3.645.384m4.701-13.289q.096-.384.144-.767.096-.384.096-.72 0-1.007-.384-1.87a4.9 4.9 0 0 0-1.055-1.584 4.3 4.3 0 0 0-1.632-1.007q-.911-.384-2.11-.384-1.776 0-2.975.72t-1.823 1.87a6.7 6.7 0 0 0-.719 2.303h12.473zm26.722 12.809-6.861-10.794-3.694 4.126v-7.436l9.067-9.547h7.58l-8.587 8.827 9.595 14.824zm-16.023 0V15.25h5.996v33.437z"/><path fill-rule="evenodd" d="M232.334 26.835a1.63 1.63 0 0 0-1.212-1.968l-35.681-8.435a1.63 1.63 0 0 0-1.962 1.21L188.832 37.1a1.63 1.63 0 0 0 1.212 1.967l35.681 8.435a1.63 1.63 0 0 0 1.962-1.21zm-26.846-.12q.689.826.374 2.143a.37.37 0 0 1-.444.274l-3.896-.921a10.7 10.7 0 0 0-2.021-.288 5.3 5.3 0 0 0-1.798.238q-.982.273-1.744 1.073-.724.776-1.03 2.062-.343 1.435.112 2.712a5.05 5.05 0 0 0 1.6 2.18q1.146.902 2.764 1.285 1.139.27 2.265.061 1.125-.207 2.133-.98c.122-.093.306.002.29.154l-.103 1.029a.565.565 0 0 0 .433.606l1.349.32a1.63 1.63 0 0 0 1.963-1.21l.901-3.771a.9.9 0 0 1 1.085-.669c.444.105.734.526.724.982a8 8 0 0 0 .27 2.234 7.45 7.45 0 0 0 2.017 3.352q1.442 1.383 3.6 1.893 2.127.504 4.04-.087a7.5 7.5 0 0 0 3.294-2.128q1.374-1.508 1.902-3.72.535-2.244-.016-4.175a7.23 7.23 0 0 0-1.987-3.345q-1.443-1.383-3.57-1.886-2.157-.51-4.101.073a7.3 7.3 0 0 0-3.287 2.098q-.623.675-1.074 1.508c-.219.406-.673.644-1.122.54l-.528-.123a.41.41 0 0 1-.305-.493q.643-2.692-.701-4.62-1.344-1.93-4.4-2.652-1.888-.446-3.671-.268a9.6 9.6 0 0 0-2.203.473c-.803.269-1.139 1.185-.806 1.963.367.856 1.394 1.191 2.298.966a7 7 0 0 1 .821-.153q1.342-.188 2.511.088 1.408.333 2.061 1.182m11.622 11.5q1.138.27 2.076-.078.968-.34 1.623-1.228.684-.881 1.013-2.256.336-1.405.115-2.47-.184-1.084-.901-1.792-.68-.73-1.82-.999-1.168-.276-2.135.064-.961.31-1.646 1.19-.678.852-1.014 2.257-.329 1.376-.114 2.469.213 1.093.924 1.83.71.735 1.879 1.013" clip-rule="evenodd"/><path d="M201.404 31.09a5.3 5.3 0 0 0-.98-.137 1.57 1.57 0 0 0-.858.144 1.35 1.35 0 0 0-.578.432 1.6 1.6 0 0 0-.314.653 1.66 1.66 0 0 0 .338 1.502q.538.663 1.646.926.99.234 1.898.006a3.6 3.6 0 0 0 1.604-.884q.696-.657.931-1.645a.12.12 0 0 0-.091-.147zm50.597 18.364q-4.75 0-8.396-2.207-3.597-2.207-5.612-6.14-2.016-3.934-2.015-9.163 0-5.23 2.015-9.115 2.015-3.935 5.612-6.14 3.646-2.208 8.396-2.208 5.324 0 9.162 2.687 3.887 2.639 5.565 7.292l-5.852 2.159q-1.056-2.926-3.359-4.558-2.255-1.63-5.516-1.63-2.975 0-5.229 1.39-2.207 1.392-3.407 3.982-1.15 2.543-1.151 6.14 0 3.6 1.151 6.189 1.2 2.59 3.407 3.982 2.255 1.39 5.229 1.391 3.261 0 5.516-1.631 2.303-1.632 3.359-4.558l5.852 2.111q-1.679 4.655-5.565 7.34-3.838 2.687-9.162 2.687m27.391-.288q-2.878 0-4.845-1.151-1.919-1.151-2.878-3.263-.912-2.11-.912-4.94V25.035h5.949v13.288q0 1.631.384 2.926.383 1.248 1.344 2.015 1.007.72 2.733.72 2.112 0 3.166-1.2 1.104-1.199 1.489-3.31.43-2.158.43-5.037v-9.403h5.95v23.651h-5.95v-5.133l.816.48q-1.055 2.734-3.119 3.934t-4.557 1.199m31.445.001a9.2 9.2 0 0 1-3.456-.672q-1.63-.72-2.878-2.35-1.245-1.68-1.87-4.462l1.44.672v6.332h-5.95V15.25h5.95v16.167l-1.248.384q.431-2.447 1.583-4.03 1.2-1.63 2.878-2.399a8 8 0 0 1 3.551-.815q2.781 0 5.085 1.487 2.301 1.439 3.645 4.174 1.343 2.734 1.344 6.62 0 3.501-1.199 6.332-1.2 2.782-3.503 4.414-2.255 1.583-5.372 1.583m-1.632-5.469q1.775 0 3.023-.816 1.294-.863 2.015-2.398.718-1.536.718-3.646 0-2.111-.718-3.598-.721-1.536-2.015-2.35-1.248-.864-3.023-.864-1.725 0-3.023.863-1.246.816-1.966 2.35-.67 1.536-.671 3.599 0 2.062.671 3.598.72 1.535 1.966 2.398 1.298.864 3.023.864m27.308 5.468q-3.455 0-6.142-1.583-2.686-1.583-4.269-4.366-1.536-2.83-1.536-6.38 0-3.599 1.536-6.333 1.536-2.783 4.222-4.365 2.735-1.584 6.189-1.583 3.406 0 6.092 1.583 2.687 1.582 4.221 4.365 1.536 2.735 1.536 6.333 0 3.55-1.536 6.332a11.65 11.65 0 0 1-4.221 4.414q-2.686 1.583-6.092 1.583m0-5.23q1.822 0 3.119-.863 1.342-.862 2.013-2.446.72-1.584.72-3.79 0-2.255-.72-3.79-.67-1.583-2.013-2.399-1.297-.863-3.119-.863-1.872 0-3.215.863-1.343.816-2.062 2.399-.72 1.535-.72 3.79 0 2.206.72 3.79.719 1.582 2.062 2.446t3.215.864"/></g><defs><clipPath id="a"><path fill="#fff" d="M73.825 14.481h274.547v35.083H73.825z"/></clipPath></defs></svg>