<svg width="488" height="488" viewBox="0 0 488 488" fill="none" xmlns="http://www.w3.org/2000/svg">
<path fill-rule="evenodd" clip-rule="evenodd" d="M488 16C488 7.16344 480.837 0 472 0H16C7.16344 0 0 7.16345 0 16V472C0 480.837 7.16345 488 16 488H472C480.837 488 488 480.837 488 472V16ZM100.254 159.158C95.3032 162.016 92.2536 167.298 92.2536 173.014V349.954C92.2536 362.201 79.0559 369.908 68.39 363.888L58.8377 358.498C53.8106 355.661 50.7013 350.336 50.7013 344.564V147.663C50.7013 141.947 53.7509 136.665 58.7013 133.807L236.357 31.237C241.308 28.3789 247.407 28.3789 252.357 31.237L428.916 133.173C433.866 136.031 436.916 141.313 436.916 147.029V340.866C436.916 346.582 433.866 351.864 428.916 354.722L252.357 456.658C247.407 459.517 241.308 459.517 236.357 456.658L146.519 404.79C141.568 401.932 138.519 396.65 138.519 390.933V198.365C138.519 192.648 141.568 187.366 146.518 184.508L236.357 132.64C241.308 129.781 247.407 129.781 252.357 132.64L342.196 184.508C347.147 187.366 350.196 192.648 350.196 198.365V292.201C350.196 297.917 347.147 303.199 342.196 306.057L252.357 357.926C247.407 360.784 241.308 360.784 236.357 357.926L230.809 354.722C225.859 351.864 222.809 346.582 222.809 340.866V249.066C222.809 243.35 225.859 238.068 230.809 235.209L236.357 232.006C241.308 229.148 247.407 229.148 252.357 232.006L257.906 235.209C262.856 238.068 265.906 243.35 265.906 249.066V275.45C265.906 287.767 279.239 295.465 289.906 289.307L302.84 281.839C307.79 278.981 310.84 273.699 310.84 267.983V223.081C310.84 217.365 307.79 212.083 302.84 209.225L252.357 180.079C247.407 177.221 241.308 177.221 236.357 180.079L185.875 209.225C180.925 212.083 177.875 217.365 177.875 223.081V368.118C177.875 373.834 180.925 379.116 185.875 381.974L236.357 411.12C241.308 413.978 247.407 413.978 252.357 411.12L388.461 332.541C393.412 329.682 396.461 324.4 396.461 318.684V173.014C396.461 167.298 393.412 162.016 388.461 159.158L252.357 80.5779C247.407 77.7198 241.308 77.7198 236.357 80.5779L100.254 159.158Z" fill="#F56B15"/>
</svg>
