<svg width="433" height="484" viewBox="0 0 433 484" fill="none" xmlns="http://www.w3.org/2000/svg">
<path d="M46.5858 160.739V363.878C46.5858 376.129 33.3798 383.835 22.7138 377.807L8.12799 369.564C3.10558 366.726 0 361.404 0 355.635V132.278C0 126.565 3.04589 121.286 7.99155 118.426L209.107 2.14851C214.062 -0.716125 220.169 -0.716128 225.124 2.14851L425.008 117.715C429.954 120.574 433 125.853 433 131.566V351.47C433 357.183 429.954 362.463 425.008 365.322L225.124 480.888C220.169 483.753 214.062 483.753 209.107 480.888L106.447 421.534C101.501 418.674 98.4552 413.395 98.4552 407.682V189.201C98.4552 183.488 101.501 178.209 106.447 175.35L209.107 115.995C214.062 113.13 220.169 113.13 225.124 115.995L327.784 175.35C332.73 178.209 335.775 183.488 335.775 189.201V296.833C335.775 302.546 332.73 307.825 327.784 310.684L225.124 370.039C220.169 372.903 214.062 372.903 209.107 370.039L200.949 365.322C196.003 362.463 192.957 357.183 192.957 351.47V246.124C192.957 240.412 196.003 235.132 200.949 232.273L209.107 227.556C214.062 224.691 220.169 224.691 225.124 227.556L233.282 232.273C238.228 235.132 241.274 240.412 241.274 246.124V280.268C241.274 292.589 254.615 300.287 265.282 294.12L283.659 283.495C288.605 280.635 291.651 275.356 291.651 269.643V216.951C291.651 211.238 288.605 205.959 283.659 203.1L225.124 169.256C220.169 166.392 214.062 166.392 209.107 169.256L150.571 203.1C145.626 205.959 142.58 211.238 142.58 216.951V382.067C142.58 387.779 145.626 393.059 150.571 395.918L209.107 429.761C214.062 432.626 220.169 432.626 225.124 429.761L379.653 340.418C384.599 337.559 387.645 332.279 387.645 326.566V160.739C387.645 155.027 384.599 149.747 379.653 146.888L225.124 57.5445C220.169 54.6799 214.062 54.6799 209.107 57.5445L54.5774 146.888C49.6317 149.747 46.5858 155.027 46.5858 160.739Z" fill="#F2F5F9"/>
</svg>
