<svg width="2414" height="488" viewBox="0 0 2414 488" fill="none" xmlns="http://www.w3.org/2000/svg">
<path fill-rule="evenodd" clip-rule="evenodd" d="M488 16C488 7.16344 480.837 0 472 0H16C7.16344 0 0 7.16345 0 16V472C0 480.837 7.16345 488 16 488H472C480.837 488 488 480.837 488 472V16ZM100.254 159.158C95.3032 162.016 92.2536 167.298 92.2536 173.014V349.954C92.2536 362.201 79.0559 369.908 68.39 363.888L58.8377 358.498C53.8106 355.661 50.7013 350.336 50.7013 344.564V147.663C50.7013 141.947 53.7509 136.665 58.7013 133.807L236.357 31.237C241.308 28.3789 247.407 28.3789 252.357 31.237L428.916 133.173C433.866 136.031 436.916 141.313 436.916 147.029V340.866C436.916 346.582 433.866 351.864 428.916 354.722L252.357 456.658C247.407 459.517 241.308 459.517 236.357 456.658L146.519 404.79C141.568 401.932 138.519 396.65 138.519 390.933V198.365C138.519 192.648 141.568 187.366 146.518 184.508L236.357 132.64C241.308 129.781 247.407 129.781 252.357 132.64L342.196 184.508C347.147 187.366 350.196 192.648 350.196 198.365V292.201C350.196 297.917 347.147 303.199 342.196 306.057L252.357 357.926C247.407 360.784 241.308 360.784 236.357 357.926L230.809 354.722C225.859 351.864 222.809 346.582 222.809 340.866V249.066C222.809 243.35 225.859 238.068 230.809 235.209L236.357 232.006C241.308 229.148 247.407 229.148 252.357 232.006L257.906 235.209C262.856 238.068 265.906 243.35 265.906 249.066V275.45C265.906 287.767 279.239 295.465 289.906 289.307L302.84 281.839C307.79 278.981 310.84 273.699 310.84 267.983V223.081C310.84 217.365 307.79 212.083 302.84 209.225L252.357 180.079C247.407 177.221 241.308 177.221 236.357 180.079L185.875 209.225C180.925 212.083 177.875 217.365 177.875 223.081V368.118C177.875 373.834 180.925 379.116 185.875 381.974L236.357 411.12C241.308 413.978 247.407 413.978 252.357 411.12L388.461 332.541C393.412 329.682 396.461 324.4 396.461 318.684V173.014C396.461 167.298 393.412 162.016 388.461 159.158L252.357 80.5779C247.407 77.7198 241.308 77.7198 236.357 80.5779L100.254 159.158Z" fill="#F56B15"/>
<path d="M807.431 357.881V130.445H854.093V357.881H807.431Z" fill="#F56B15"/>
<path d="M895.062 357.881V130.445H977.618C1000.46 130.445 1018.41 135.557 1031.46 145.781C1044.51 156.006 1051.04 170.037 1051.04 187.875C1051.04 198.317 1048.97 207.562 1044.84 215.611C1040.7 223.443 1034.94 229.751 1027.54 234.537C1039.73 239.54 1048.75 246.719 1054.63 256.073C1060.5 265.428 1063.44 276.848 1063.44 290.336C1063.44 311.437 1056.8 327.97 1043.53 339.934C1030.26 351.899 1011.99 357.881 988.713 357.881H895.062ZM941.724 315.135H984.797C1006.12 315.135 1016.78 306.216 1016.78 288.378C1016.78 279.894 1014.06 273.368 1008.62 268.799C1003.4 264.014 995.891 261.621 986.102 261.621H941.724V315.135ZM941.724 219.853H978.271C986.537 219.853 992.955 217.678 997.523 213.327C1002.09 208.976 1004.38 202.994 1004.38 195.38C1004.38 188.419 1001.98 182.98 997.197 179.065C992.628 175.149 986.102 173.191 977.618 173.191H941.724V219.853Z" fill="#F56B15"/>
<path d="M1095.82 357.881V130.445H1247.88V172.212H1142.48V220.18H1241.68V261.947H1142.48V316.114H1247.88V357.881H1095.82Z" fill="#F56B15"/>
<path d="M1742.45 357.881V130.445H1763.66V357.881H1742.45Z" fill="#F2F5F9"/>
<path fill-rule="evenodd" clip-rule="evenodd" d="M2014.06 155.244L2012.75 154.918V158.371L2014.06 155.244Z" fill="#F2F5F9"/>
<path d="M2089.47 357.881V130.445H2238.27V149.697H2110.68V232.579H2225.22V251.831H2110.68V338.629H2238.27V357.881H2089.47Z" fill="#F2F5F9"/>
<path d="M2342.46 360.818C2320.28 360.818 2302.11 355.053 2287.97 343.524C2273.83 331.994 2265.24 316.658 2262.19 297.514L2283.08 292.294C2285.69 308.391 2292.32 320.682 2302.98 329.166C2313.86 337.433 2327.24 341.566 2343.12 341.566C2352.47 341.566 2360.85 339.717 2368.24 336.019C2375.86 332.321 2381.84 327.1 2386.19 320.356C2390.54 313.612 2392.72 305.89 2392.72 297.188C2392.72 287.834 2390.21 280.329 2385.21 274.673C2380.21 268.799 2373.57 263.796 2365.31 259.663C2357.04 255.53 2347.69 251.505 2337.24 247.589C2325.5 243.021 2314.95 238.126 2305.59 232.906C2296.24 227.467 2288.84 220.941 2283.4 213.327C2278.18 205.713 2275.57 196.25 2275.57 184.938C2275.57 173.626 2278.29 163.728 2283.73 155.244C2289.17 146.543 2296.78 139.69 2306.57 134.687C2316.58 129.684 2328.11 127.182 2341.16 127.182C2355.08 127.182 2367.37 130.336 2378.03 136.645C2388.69 142.953 2397.28 152.199 2403.81 164.381L2386.84 174.823C2381.62 165.686 2375.1 158.616 2367.26 153.613C2359.65 148.609 2350.73 146.108 2340.51 146.108C2331.8 146.108 2324.19 147.739 2317.67 151.002C2311.14 154.265 2306.03 158.834 2302.33 164.707C2298.63 170.363 2296.78 176.889 2296.78 184.286C2296.78 192.117 2298.85 198.752 2302.98 204.19C2307.33 209.629 2313.42 214.306 2321.25 218.222C2329.3 222.137 2338.66 226.053 2349.32 229.969C2361.93 234.755 2373.03 239.976 2382.6 245.632C2392.39 251.07 2400 257.814 2405.44 265.863C2410.88 273.912 2413.6 283.918 2413.6 295.883C2413.6 308.5 2410.55 319.703 2404.46 329.493C2398.37 339.282 2390 347.004 2379.34 352.66C2368.68 358.099 2356.39 360.818 2342.46 360.818Z" fill="#F2F5F9"/>
<path d="M568 130.445L659.366 357.881H693.955L784.995 130.445H733.112L676.911 280.603L619.557 130.445H568Z" fill="#F56B15"/>
<path d="M1387.06 130.445L1302.55 357.881H1326.37L1346.99 299.472H1445.4L1466.03 357.881H1489.2L1405.01 130.445H1387.06ZM1396.2 160.139L1438.6 280.22H1353.79L1396.2 160.139Z" fill="#F2F5F9"/>
<path d="M1665.77 323.519L1547.98 130.445H1524.81V357.881H1546.02V164.53L1663.16 357.881H1686.98V130.445H1665.77V323.519Z" fill="#F2F5F9"/>
<path d="M1926.77 313.276L1851.23 130.445H1819.25V357.881H1840.46V158.358L1916.16 338.956H1937.37L2012.75 158.371V357.881H2033.96V130.445H2002.64L1926.77 313.276ZM2012.75 158.371V154.918L2014.06 155.244L2012.75 158.371Z" fill="#F2F5F9"/>
</svg>
