<svg width="2360" height="484" viewBox="0 0 2360 484" fill="none" xmlns="http://www.w3.org/2000/svg">
<path d="M46.6934 160.761V363.919C46.6934 376.164 33.501 383.87 22.8352 377.857L8.14175 369.572C3.11161 366.736 0 361.409 0 355.635V132.299C0 126.581 3.05192 121.297 8.00537 118.44L209.622 2.14049C214.57 -0.713494 220.664 -0.713496 225.611 2.14048L425.995 117.728C430.948 120.585 434 125.869 434 131.587V351.47C434 357.189 430.948 362.473 425.995 365.33L225.611 480.917C220.664 483.771 214.57 483.771 209.622 480.917L106.688 421.542C101.735 418.684 98.6826 413.401 98.6826 407.682V189.222C98.6826 183.504 101.735 178.22 106.688 175.363L209.622 115.987C214.57 113.133 220.664 113.133 225.611 115.987L328.546 175.363C333.499 178.22 336.551 183.504 336.551 189.222V296.833C336.551 302.551 333.499 307.835 328.546 310.692L225.611 370.068C220.664 372.922 214.57 372.922 209.622 370.068L201.408 365.33C196.455 362.473 193.403 357.189 193.403 351.47V246.146C193.403 240.427 196.455 235.143 201.408 232.286L209.622 227.548C214.57 224.694 220.664 224.694 225.611 227.548L233.826 232.286C238.779 235.143 241.831 240.427 241.831 246.146V280.311C241.831 292.625 255.159 300.323 265.826 294.17L284.319 283.503C289.273 280.645 292.325 275.362 292.325 269.643V216.972C292.325 211.254 289.273 205.97 284.319 203.113L225.611 169.248C220.664 166.394 214.57 166.394 209.622 169.248L150.914 203.113C145.961 205.97 142.909 211.254 142.909 216.972V382.067C142.909 387.785 145.961 393.069 150.914 395.926L209.622 429.791C214.57 432.645 220.664 432.645 225.611 429.791L380.535 340.426C385.488 337.569 388.54 332.285 388.54 326.566V160.761C388.54 155.042 385.488 149.759 380.535 146.901L225.611 57.5365C220.664 54.6825 214.57 54.6825 209.622 57.5365L54.6988 146.901C49.7454 149.759 46.6934 155.042 46.6934 160.761Z" fill="#F56B15"/>
<path d="M753.431 355.41V127.974H800.093V355.41H753.431Z" fill="#F56B15"/>
<path d="M841.062 355.41V127.974H923.618C946.46 127.974 964.407 133.086 977.459 143.31C990.511 153.535 997.037 167.566 997.037 185.404C997.037 195.846 994.971 205.091 990.837 213.14C986.704 220.972 980.939 227.28 973.543 232.066C985.725 237.069 994.753 244.248 1000.63 253.602C1006.5 262.956 1009.44 274.377 1009.44 287.865C1009.44 308.966 1002.8 325.499 989.532 337.463C976.262 349.428 957.989 355.41 934.713 355.41H841.062ZM887.724 312.664H930.797C952.116 312.664 962.775 303.745 962.775 285.907C962.775 277.423 960.056 270.897 954.617 266.328C949.396 261.542 941.891 259.15 932.102 259.15H887.724V312.664ZM887.724 217.382H924.271C932.537 217.382 938.955 215.207 943.523 210.856C948.091 206.505 950.375 200.523 950.375 192.909C950.375 185.948 947.982 180.509 943.197 176.594C938.628 172.678 932.102 170.72 923.618 170.72H887.724V217.382Z" fill="#F56B15"/>
<path d="M1041.82 355.41V127.974H1193.88V169.741H1088.48V217.708H1187.68V259.476H1088.48V313.643H1193.88V355.41H1041.82Z" fill="#F56B15"/>
<path d="M1688.45 355.41V127.974H1709.66V355.41H1688.45Z" fill="#F2F5F9"/>
<path d="M2035.47 355.41V127.974H2184.27V147.226H2056.68V230.108H2171.22V249.36H2056.68V336.158H2184.27V355.41H2035.47Z" fill="#F2F5F9"/>
<path d="M2288.46 358.347C2266.28 358.347 2248.11 352.582 2233.97 341.053C2219.83 329.523 2211.24 314.187 2208.19 295.043L2229.08 289.822C2231.69 305.92 2238.32 318.211 2248.98 326.695C2259.86 334.962 2273.24 339.095 2289.12 339.095C2298.47 339.095 2306.85 337.246 2314.24 333.548C2321.86 329.85 2327.84 324.629 2332.19 317.885C2336.54 311.141 2338.72 303.419 2338.72 294.717C2338.72 285.363 2336.21 277.858 2331.21 272.202C2326.21 266.328 2319.57 261.325 2311.31 257.192C2303.04 253.058 2293.69 249.034 2283.24 245.118C2271.5 240.55 2260.95 235.655 2251.59 230.434C2242.24 224.996 2234.84 218.47 2229.4 210.856C2224.18 203.242 2221.57 193.779 2221.57 182.467C2221.57 171.155 2224.29 161.257 2229.73 152.773C2235.17 144.072 2242.78 137.219 2252.57 132.216C2262.58 127.212 2274.11 124.711 2287.16 124.711C2301.08 124.711 2313.37 127.865 2324.03 134.174C2334.69 140.482 2343.28 149.728 2349.81 161.91L2332.84 172.352C2327.62 163.215 2321.1 156.145 2313.26 151.142C2305.65 146.138 2296.73 143.637 2286.51 143.637C2277.8 143.637 2270.19 145.268 2263.67 148.531C2257.14 151.794 2252.03 156.363 2248.33 162.236C2244.63 167.892 2242.78 174.418 2242.78 181.815C2242.78 189.646 2244.85 196.281 2248.98 201.719C2253.33 207.158 2259.42 211.835 2267.25 215.751C2275.3 219.666 2284.66 223.582 2295.32 227.498C2307.93 232.284 2319.03 237.504 2328.6 243.16C2338.39 248.599 2346 255.343 2351.44 263.392C2356.88 271.44 2359.6 281.447 2359.6 293.412C2359.6 306.029 2356.55 317.232 2350.46 327.022C2344.37 336.811 2336 344.533 2325.34 350.189C2314.68 355.628 2302.39 358.347 2288.46 358.347Z" fill="#F2F5F9"/>
<path d="M514 127.974L605.366 355.41H639.955L730.995 127.974H679.112L622.911 278.132L565.557 127.974H514Z" fill="#F56B15"/>
<path d="M1333.06 127.974L1248.55 355.41H1272.37L1292.99 297.001H1391.4L1412.03 355.41H1435.2L1351.01 127.974H1333.06ZM1342.2 157.668L1384.6 277.749H1299.79L1342.2 157.668Z" fill="#F2F5F9"/>
<path d="M1611.77 321.048L1493.98 127.974H1470.81V355.41H1492.02V162.059L1609.16 355.41H1632.98V127.974H1611.77V321.048Z" fill="#F2F5F9"/>
<path d="M1872.77 310.805L1797.23 127.974H1765.25V355.41H1786.46V155.887L1862.16 336.484H1883.37L1958.75 155.9V355.41H1979.96V127.974H1948.64L1872.77 310.805Z" fill="#F2F5F9"/>
</svg>
