<svg xmlns="http://www.w3.org/2000/svg" width="62" height="69" fill="none" viewBox="0 0 62 69"><g clip-path="url(#a)"><path fill="#f2f5f9" d="M6.584 23.132v26.401c0 2.5-2.736 4.047-4.911 2.818A3.29 3.29 0 0 1 0 49.501v-30.39c0-1.165.621-2.242 1.63-2.825L29.05.438a3.26 3.26 0 0 1 3.266 0L59.56 16.185a3.26 3.26 0 0 1 1.63 2.826V48.92a3.26 3.26 0 0 1-1.63 2.825L32.316 67.494a3.26 3.26 0 0 1-3.266 0l-13.506-7.806a3.26 3.26 0 0 1-1.63-2.826V27.153c0-1.165.621-2.242 1.63-2.825l13.506-7.806a3.26 3.26 0 0 1 3.266 0l13.505 7.806a3.26 3.26 0 0 1 1.63 2.825v14.048a3.26 3.26 0 0 1-1.63 2.826l-13.505 7.805a3.26 3.26 0 0 1-3.266 0l-.15-.087a3.26 3.26 0 0 1-1.631-2.825V35.195c0-1.165.621-2.242 1.63-2.825l.15-.087a3.26 3.26 0 0 1 3.267 0l.15.087a3.26 3.26 0 0 1 1.63 2.825v2.507c0 2.513 2.722 4.083 4.898 2.826l.592-.343a3.26 3.26 0 0 0 1.63-2.825v-6.286a3.26 3.26 0 0 0-1.63-2.826l-7.27-4.202a3.26 3.26 0 0 0-3.266 0l-7.27 4.202a3.26 3.26 0 0 0-1.63 2.826v22.168a3.26 3.26 0 0 0 1.63 2.826l7.27 4.202a3.26 3.26 0 0 0 3.266 0l20.836-12.043a3.26 3.26 0 0 0 1.63-2.825v-22.27a3.26 3.26 0 0 0-1.63-2.825L32.316 8.264a3.26 3.26 0 0 0-3.266 0L8.214 20.307a3.26 3.26 0 0 0-1.63 2.825"/></g><defs><clipPath id="a"><path fill="#fff" d="M0 0h61.192v68.127H0z"/></clipPath></defs></svg>