<svg xmlns="http://www.w3.org/2000/svg" width="69" height="69" fill="none" viewBox="0 0 69 69"><g clip-path="url(#a)"><path fill="#f2f5f9" fill-rule="evenodd" d="M68.943 3.264A3.263 3.263 0 0 0 65.679 0H3.264A3.264 3.264 0 0 0 0 3.264v62.415a3.263 3.263 0 0 0 3.264 3.264h62.415a3.263 3.263 0 0 0 3.264-3.264zM14.665 22.195a3.26 3.26 0 0 0-1.632 2.827v23.263c0 2.246-2.42 3.66-4.378 2.556a2.94 2.94 0 0 1-1.492-2.556V21.44c0-1.166.622-2.243 1.632-2.826L32.89 4.703a3.26 3.26 0 0 1 3.264 0l23.94 13.822a3.26 3.26 0 0 1 1.632 2.826v26.226a3.26 3.26 0 0 1-1.632 2.826l-23.94 13.822a3.26 3.26 0 0 1-3.264 0l-11.689-6.748a3.26 3.26 0 0 1-1.632-2.827V28.603c0-1.166.622-2.243 1.632-2.826l11.69-6.749a3.26 3.26 0 0 1 3.263 0l11.688 6.749a3.26 3.26 0 0 1 1.632 2.826v12.099a3.26 3.26 0 0 1-1.631 2.826l-11.8 6.812a3.044 3.044 0 0 1-4.565-2.636V35.639a3.044 3.044 0 0 1 6.088 0v1.693c0 2.443 2.645 3.97 4.761 2.749a3.17 3.17 0 0 0 1.587-2.749v-5.237a3.26 3.26 0 0 0-1.632-2.826l-6.128-3.538a3.26 3.26 0 0 0-3.264 0l-6.129 3.538a3.26 3.26 0 0 0-1.631 2.826v19.332c0 1.166.622 2.243 1.631 2.826l6.13 3.539a3.26 3.26 0 0 0 3.263 0L54.379 47.27a3.26 3.26 0 0 0 1.631-2.827V25.022a3.26 3.26 0 0 0-1.631-2.827L36.154 11.673a3.26 3.26 0 0 0-3.264 0z" clip-rule="evenodd"/></g><defs><clipPath id="a"><path fill="#fff" d="M0 0h68.943v68.943H0z"/></clipPath></defs></svg>