<svg xmlns="http://www.w3.org/2000/svg" width="275" height="36" fill="none" viewBox="0 0 275 36"><g fill="#f2f5f9" clip-path="url(#a)"><path d="M15.64 34.972q-4.607 0-8.108-2.206-3.502-2.208-5.517-6.141Q0 22.69 0 17.462t2.015-9.115q2.014-3.934 5.613-6.14Q11.273 0 16.023 0q5.325 0 9.163 2.686 3.885 2.64 5.565 7.292l-5.853 2.16Q23.842 9.21 21.54 7.58q-2.255-1.631-5.517-1.631-2.974 0-5.23 1.39-2.206 1.392-3.405 3.983-1.152 2.543-1.152 6.14 0 3.599 1.152 6.189 1.2 2.59 3.406 3.981 2.255 1.392 5.229 1.392 1.535 0 3.166-.432a8.1 8.1 0 0 0 2.974-1.487q1.392-1.103 2.207-3.023.864-1.918.864-4.893V17.27l1.39 4.318H17.03v-5.565h13.72v18.182h-5.468l-.864-5.421 1.056.815a8.6 8.6 0 0 1-2.351 2.975 9.9 9.9 0 0 1-3.406 1.775q-1.871.623-4.078.623m31.247-.287q-3.069 0-5.277-1.008-2.206-1.008-3.645-2.686a11.7 11.7 0 0 1-2.063-3.886 15.7 15.7 0 0 1-.672-4.606q0-2.302.672-4.51a12.6 12.6 0 0 1 2.014-3.98q1.344-1.776 3.454-2.831 2.159-1.104 5.134-1.104 2.782 0 4.845.96 2.062.91 3.406 2.59 1.343 1.632 2.015 3.838.72 2.206.72 4.701 0 .336-.049.96 0 .576-.095 1.247H41.178q.24 2.542 1.87 3.838 1.68 1.296 4.174 1.295 1.823 0 3.55-.623a10 10 0 0 0 3.07-1.871l2.975 4.03q-1.68 1.295-3.166 2.11-1.487.816-3.119 1.152-1.582.383-3.646.383m4.702-13.29a7 7 0 0 0 .144-.767q.096-.383.096-.72 0-1.006-.384-1.87a4.9 4.9 0 0 0-1.056-1.583 4.26 4.26 0 0 0-1.63-1.008q-.912-.383-2.112-.383-1.774 0-2.974.72-1.2.718-1.823 1.87a6.7 6.7 0 0 0-.72 2.303h12.474zM72.84 34.685q-3.069 0-5.277-1.008-2.206-1.008-3.645-2.686a11.7 11.7 0 0 1-2.063-3.886 15.7 15.7 0 0 1-.672-4.606q0-2.302.672-4.51a12.6 12.6 0 0 1 2.015-3.98q1.343-1.776 3.453-2.831 2.159-1.104 5.134-1.104 2.782 0 4.845.96 2.062.91 3.406 2.59 1.343 1.632 2.015 3.838.72 2.206.72 4.701 0 .336-.049.96 0 .576-.095 1.247H67.132q.24 2.542 1.87 3.838 1.68 1.296 4.174 1.295 1.823 0 3.55-.623a10 10 0 0 0 3.07-1.871l2.975 4.03q-1.68 1.295-3.166 2.11a11.1 11.1 0 0 1-3.119 1.152q-1.582.383-3.645.383m4.702-13.29a7 7 0 0 0 .144-.767q.096-.383.096-.72 0-1.006-.384-1.87a4.9 4.9 0 0 0-1.055-1.583 4.26 4.26 0 0 0-1.632-1.008q-.91-.383-2.11-.383-1.775 0-2.975.72-1.2.718-1.823 1.87a6.7 6.7 0 0 0-.72 2.303h12.474zm26.72 12.811-6.86-10.794-3.694 4.125v-7.435l9.067-9.547h7.58l-8.587 8.827 9.595 14.824zm-16.023 0V.768h5.997v33.437z"/><path fill-rule="evenodd" d="M158.509 12.353a1.63 1.63 0 0 0-1.212-1.967l-35.681-8.435a1.63 1.63 0 0 0-1.962 1.209l-4.647 19.46a1.63 1.63 0 0 0 1.212 1.966l35.681 8.436a1.63 1.63 0 0 0 1.962-1.21zm-26.847-.119q.69.826.375 2.142a.37.37 0 0 1-.445.274l-3.895-.92a10.7 10.7 0 0 0-2.021-.289 5.3 5.3 0 0 0-1.798.239q-.982.273-1.744 1.072-.723.777-1.03 2.063-.343 1.436.112 2.712a5.05 5.05 0 0 0 1.6 2.18q1.146.902 2.764 1.284 1.139.27 2.265.062 1.125-.209 2.133-.98c.122-.093.306.002.29.154l-.103 1.029a.565.565 0 0 0 .433.606l1.349.319a1.63 1.63 0 0 0 1.963-1.21l.901-3.77a.9.9 0 0 1 1.084-.67c.445.106.735.526.725.983a8 8 0 0 0 .27 2.233 7.45 7.45 0 0 0 2.017 3.352q1.442 1.384 3.599 1.894 2.129.503 4.041-.087a7.5 7.5 0 0 0 3.294-2.128q1.373-1.509 1.902-3.721.535-2.243-.016-4.175a7.23 7.23 0 0 0-1.987-3.344q-1.443-1.384-3.57-1.887-2.157-.51-4.101.073a7.3 7.3 0 0 0-3.287 2.098q-.622.675-1.074 1.509c-.219.406-.673.644-1.122.54l-.528-.123a.41.41 0 0 1-.305-.493q.642-2.693-.701-4.62-1.344-1.93-4.4-2.652-1.889-.447-3.672-.268a9.6 9.6 0 0 0-2.202.473c-.803.268-1.139 1.185-.806 1.962.367.856 1.394 1.191 2.298.967a7 7 0 0 1 .821-.153q1.343-.188 2.511.088 1.409.333 2.06 1.182m11.623 11.5q1.138.269 2.076-.079.968-.34 1.623-1.227.684-.882 1.013-2.257.336-1.405.115-2.469-.184-1.086-.901-1.792-.68-.73-1.82-1-1.168-.275-2.136.065-.96.31-1.645 1.19-.678.852-1.014 2.257-.329 1.376-.114 2.468.213 1.095.924 1.83.71.737 1.879 1.013" clip-rule="evenodd"/><path d="M127.579 16.608a5.3 5.3 0 0 0-.98-.137 1.57 1.57 0 0 0-.858.145 1.35 1.35 0 0 0-.578.432 1.6 1.6 0 0 0-.314.652 1.66 1.66 0 0 0 .338 1.502q.538.665 1.646.926.99.234 1.898.007a3.6 3.6 0 0 0 1.604-.885q.696-.657.931-1.644a.12.12 0 0 0-.091-.148zm50.596 18.364q-4.749 0-8.395-2.206-3.597-2.208-5.613-6.141-2.014-3.934-2.014-9.163t2.014-9.115q2.016-3.934 5.613-6.14Q173.426 0 178.175 0q5.326 0 9.163 2.686 3.887 2.64 5.565 7.292l-5.852 2.16q-1.056-2.927-3.359-4.558-2.255-1.631-5.517-1.631-2.973 0-5.229 1.39-2.206 1.392-3.406 3.983-1.15 2.543-1.151 6.14 0 3.599 1.151 6.189 1.2 2.59 3.406 3.981 2.256 1.392 5.229 1.392 3.262 0 5.517-1.632 2.303-1.63 3.359-4.557l5.852 2.11q-1.678 4.655-5.565 7.34-3.837 2.688-9.163 2.687m27.392-.287q-2.879 0-4.845-1.152-1.919-1.151-2.878-3.262-.912-2.11-.912-4.941V10.554h5.949v13.289q0 1.63.383 2.926.384 1.247 1.345 2.015 1.006.72 2.733.72 2.112 0 3.166-1.2 1.104-1.2 1.489-3.31.43-2.16.43-5.037v-9.403h5.95v23.65h-5.95v-5.132l.816.48q-1.055 2.733-3.119 3.933t-4.557 1.2m31.445 0a9.2 9.2 0 0 1-3.456-.672q-1.63-.72-2.878-2.35-1.245-1.68-1.87-4.462l1.44.671v6.333h-5.95V.768h5.95v16.166l-1.248.384q.432-2.445 1.582-4.03 1.201-1.63 2.879-2.398a8 8 0 0 1 3.551-.816q2.781 0 5.085 1.488 2.301 1.438 3.645 4.173t1.344 6.62q0 3.503-1.199 6.333-1.2 2.782-3.503 4.413-2.255 1.584-5.372 1.584m-1.632-5.47q1.775 0 3.023-.815 1.294-.864 2.015-2.399.718-1.534.718-3.646 0-2.11-.718-3.598-.721-1.535-2.015-2.35-1.248-.864-3.023-.864-1.726 0-3.023.864-1.246.815-1.966 2.35-.67 1.536-.671 3.598 0 2.063.671 3.598.72 1.535 1.966 2.399 1.297.864 3.023.864m27.308 5.469q-3.455 0-6.142-1.584-2.687-1.582-4.269-4.365-1.536-2.83-1.536-6.38 0-3.6 1.536-6.333 1.536-2.782 4.222-4.366 2.735-1.583 6.189-1.583 3.405 0 6.092 1.583 2.687 1.584 4.221 4.366 1.535 2.735 1.535 6.332 0 3.55-1.535 6.333a11.65 11.65 0 0 1-4.221 4.413q-2.687 1.584-6.092 1.584m0-5.23q1.822 0 3.118-.863 1.344-.864 2.014-2.447.72-1.582.72-3.79 0-2.254-.72-3.79-.67-1.583-2.014-2.398-1.296-.864-3.118-.864-1.872 0-3.215.864-1.343.815-2.062 2.398-.72 1.536-.72 3.79 0 2.208.72 3.79.719 1.583 2.062 2.447 1.343.863 3.215.863"/></g><defs><clipPath id="a"><path fill="#fff" d="M0 0h274.547v35.083H0z"/></clipPath></defs></svg>