<svg xmlns="http://www.w3.org/2000/svg" width="352" height="69" fill="none" viewBox="0 0 352 69"><g clip-path="url(#a)"><path fill="#f56b15" fill-rule="evenodd" d="M68.943 3.264A3.263 3.263 0 0 0 65.679 0H3.264A3.264 3.264 0 0 0 0 3.264v62.415a3.263 3.263 0 0 0 3.264 3.264h62.415a3.263 3.263 0 0 0 3.264-3.264zM14.665 22.195a3.26 3.26 0 0 0-1.632 2.827v23.263c0 2.246-2.42 3.66-4.378 2.556a2.94 2.94 0 0 1-1.492-2.556V21.44c0-1.166.622-2.243 1.632-2.826L32.89 4.703a3.26 3.26 0 0 1 3.264 0l23.94 13.822a3.26 3.26 0 0 1 1.632 2.826v26.226a3.26 3.26 0 0 1-1.632 2.826l-23.94 13.822a3.26 3.26 0 0 1-3.264 0l-11.689-6.748a3.26 3.26 0 0 1-1.632-2.827V28.603c0-1.166.622-2.243 1.632-2.826l11.69-6.749a3.26 3.26 0 0 1 3.263 0l11.688 6.749a3.26 3.26 0 0 1 1.632 2.826v12.099a3.26 3.26 0 0 1-1.631 2.826l-11.8 6.812a3.044 3.044 0 0 1-4.565-2.636V35.639a3.044 3.044 0 0 1 6.088 0v1.693c0 2.443 2.645 3.97 4.761 2.749a3.17 3.17 0 0 0 1.587-2.749v-5.237a3.26 3.26 0 0 0-1.632-2.826l-6.128-3.538a3.26 3.26 0 0 0-3.264 0l-6.129 3.538a3.26 3.26 0 0 0-1.631 2.826v19.332c0 1.166.622 2.243 1.631 2.826l6.13 3.539a3.26 3.26 0 0 0 3.263 0L54.379 47.27a3.26 3.26 0 0 0 1.631-2.827V25.022a3.26 3.26 0 0 0-1.631-2.827L36.154 11.673a3.26 3.26 0 0 0-3.264 0z" clip-rule="evenodd"/><path fill="#f2f5f9" d="M92.74 51.957q-4.605 0-8.107-2.206t-5.517-6.14q-2.014-3.935-2.014-9.164t2.014-9.115q2.016-3.933 5.613-6.14 3.646-2.207 8.396-2.207 5.325 0 9.162 2.687 3.886 2.639 5.565 7.291l-5.853 2.16q-1.054-2.927-3.358-4.558-2.255-1.631-5.516-1.631-2.974 0-5.23 1.391-2.205 1.392-3.406 3.982-1.15 2.543-1.151 6.14 0 3.598 1.151 6.189 1.2 2.59 3.406 3.981 2.256 1.392 5.23 1.392 1.534 0 3.166-.432a8.1 8.1 0 0 0 2.974-1.487q1.39-1.104 2.207-3.023.863-1.919.863-4.893v-1.919l1.391 4.318h-9.594v-5.565h13.72V51.19h-5.469l-.863-5.421 1.055.815a8.6 8.6 0 0 1-2.351 2.975 9.9 9.9 0 0 1-3.406 1.775q-1.87.624-4.077.623m31.247-.287q-3.07 0-5.277-1.008t-3.646-2.686a11.7 11.7 0 0 1-2.063-3.886 15.7 15.7 0 0 1-.672-4.606q0-2.302.672-4.51a12.7 12.7 0 0 1 2.015-3.98q1.344-1.776 3.454-2.831 2.159-1.104 5.133-1.103 2.782 0 4.845.959 2.064.912 3.406 2.59 1.344 1.632 2.015 3.838.72 2.207.72 4.702 0 .335-.048.96 0 .575-.096 1.246h-16.167q.24 2.543 1.871 3.838 1.68 1.296 4.174 1.296 1.822 0 3.55-.624a10 10 0 0 0 3.07-1.871l2.974 4.03q-1.679 1.295-3.166 2.11-1.487.816-3.118 1.152-1.583.383-3.646.384m4.701-13.289q.096-.384.144-.767.096-.384.096-.72 0-1.008-.384-1.871a4.9 4.9 0 0 0-1.055-1.583 4.26 4.26 0 0 0-1.631-1.008q-.911-.383-2.111-.383-1.775 0-2.974.72-1.2.719-1.823 1.87a6.7 6.7 0 0 0-.72 2.303h12.473zm21.253 13.289q-3.07 0-5.277-1.008-2.206-1.008-3.646-2.686a11.7 11.7 0 0 1-2.063-3.886 15.7 15.7 0 0 1-.671-4.606q0-2.302.671-4.51a12.7 12.7 0 0 1 2.015-3.98q1.344-1.776 3.454-2.831 2.159-1.104 5.133-1.103 2.782 0 4.846.959 2.062.912 3.406 2.59 1.343 1.632 2.014 3.838.72 2.207.72 4.702 0 .335-.048.96 0 .575-.096 1.246h-16.167q.24 2.543 1.871 3.838 1.68 1.296 4.174 1.296 1.823 0 3.55-.624a10 10 0 0 0 3.07-1.871l2.974 4.03q-1.678 1.295-3.166 2.11-1.487.816-3.118 1.152-1.583.383-3.646.384m4.701-13.289q.096-.384.144-.767.096-.384.096-.72 0-1.008-.384-1.871a4.9 4.9 0 0 0-1.055-1.583 4.26 4.26 0 0 0-1.631-1.008q-.911-.383-2.111-.383-1.775 0-2.974.72-1.2.719-1.823 1.87a6.7 6.7 0 0 0-.72 2.303h12.473zm26.722 12.809-6.86-10.794-3.694 4.126v-7.436l9.067-9.547h7.579l-8.587 8.827 9.595 14.824zm-16.023 0V17.753h5.997V51.19z"/><path fill="#f2f5f9" fill-rule="evenodd" d="M235.61 29.338a1.63 1.63 0 0 0-1.211-1.967l-35.681-8.435a1.63 1.63 0 0 0-1.963 1.209l-4.647 19.46a1.633 1.633 0 0 0 1.212 1.966l35.682 8.436a1.63 1.63 0 0 0 1.962-1.21zm-26.846-.119q.69.826.375 2.142a.37.37 0 0 1-.445.274l-3.896-.92a10.7 10.7 0 0 0-2.02-.289 5.3 5.3 0 0 0-1.798.239q-.984.273-1.744 1.073-.724.776-1.031 2.062-.342 1.435.112 2.712a5.04 5.04 0 0 0 1.601 2.18q1.146.902 2.763 1.285 1.14.27 2.264.061 1.127-.207 2.134-.98c.122-.093.306.002.291.154l-.104 1.029a.566.566 0 0 0 .433.606l1.35.32a1.63 1.63 0 0 0 1.962-1.21l.902-3.772a.9.9 0 0 1 1.085-.668c.443.105.732.525.724.982a7.9 7.9 0 0 0 .269 2.234 7.45 7.45 0 0 0 2.018 3.352q1.44 1.383 3.6 1.893 2.125.503 4.041-.087a7.5 7.5 0 0 0 3.294-2.128q1.37-1.508 1.901-3.721.535-2.243-.017-4.175a7.24 7.24 0 0 0-1.986-3.344q-1.444-1.384-3.57-1.887-2.158-.51-4.102.073a7.3 7.3 0 0 0-3.286 2.099q-.623.675-1.075 1.508c-.218.406-.673.644-1.121.54l-.529-.123a.41.41 0 0 1-.304-.493q.642-2.692-.701-4.62-1.344-1.93-4.4-2.652-1.888-.447-3.672-.268a9.6 9.6 0 0 0-2.203.473c-.802.269-1.138 1.185-.805 1.963.367.855 1.394 1.19 2.297.966q.402-.1.822-.153 1.342-.189 2.511.088 1.407.333 2.06 1.182m11.622 11.5q1.14.269 2.076-.079.967-.339 1.624-1.227.684-.881 1.014-2.257.334-1.406.114-2.468-.184-1.086-.902-1.793-.68-.73-1.819-.999-1.168-.276-2.136.064-.96.31-1.646 1.19-.677.852-1.013 2.257-.328 1.376-.115 2.469.215 1.092.924 1.83.71.736 1.879 1.012" clip-rule="evenodd"/><path fill="#f2f5f9" d="M204.68 33.593a5.3 5.3 0 0 0-.98-.137 1.57 1.57 0 0 0-.857.145 1.35 1.35 0 0 0-.578.432 1.56 1.56 0 0 0-.314.653 1.66 1.66 0 0 0 .338 1.501q.537.664 1.646.927a4 4 0 0 0 1.898.006 3.6 3.6 0 0 0 1.605-.885q.695-.657.93-1.644a.12.12 0 0 0-.092-.148zm50.597 18.364q-4.748 0-8.395-2.206-3.598-2.207-5.613-6.14-2.015-3.935-2.016-9.164t2.016-9.115q2.015-3.933 5.613-6.14 3.647-2.207 8.395-2.207 5.325 0 9.163 2.687 3.884 2.639 5.564 7.291l-5.852 2.16q-1.055-2.927-3.357-4.558-2.255-1.631-5.518-1.631-2.974 0-5.229 1.391-2.207 1.392-3.407 3.982-1.15 2.543-1.15 6.14 0 3.598 1.15 6.189 1.2 2.59 3.407 3.981 2.255 1.392 5.229 1.392 3.263 0 5.518-1.631 2.302-1.632 3.357-4.558l5.852 2.111q-1.68 4.653-5.564 7.34-3.838 2.686-9.163 2.686m27.392-.287q-2.88 0-4.844-1.152-1.92-1.151-2.881-3.262-.91-2.11-.911-4.941V27.539h5.95v13.289q0 1.631.383 2.926.383 1.248 1.344 2.015 1.007.72 2.733.72 2.113 0 3.166-1.2 1.104-1.2 1.489-3.31.431-2.16.43-5.037v-9.403h5.95v23.65h-5.95v-5.132l.816.48q-1.054 2.734-3.118 3.933-2.063 1.2-4.557 1.2m31.444 0a9.2 9.2 0 0 1-3.455-.672q-1.63-.72-2.878-2.35-1.245-1.68-1.871-4.462l1.441.671v6.333h-5.95V17.753h5.95V33.92l-1.249.383q.432-2.446 1.583-4.03 1.2-1.63 2.878-2.398a8 8 0 0 1 3.551-.815q2.781 0 5.085 1.487 2.302 1.438 3.645 4.173 1.344 2.735 1.344 6.62 0 3.503-1.199 6.333-1.199 2.782-3.502 4.413-2.255 1.584-5.373 1.584m-1.632-5.47q1.775 0 3.023-.815 1.294-.864 2.016-2.398.718-1.536.718-3.647t-.718-3.597q-.722-1.535-2.016-2.351-1.248-.864-3.023-.864-1.726 0-3.022.864-1.247.816-1.967 2.35-.67 1.535-.671 3.599.001 2.062.671 3.598.72 1.534 1.967 2.398 1.296.864 3.022.864m27.308 5.469q-3.455 0-6.141-1.584-2.687-1.582-4.269-4.365-1.536-2.83-1.536-6.38 0-3.6 1.536-6.333 1.535-2.782 4.222-4.365 2.734-1.584 6.188-1.583 3.406 0 6.093 1.583t4.22 4.365q1.536 2.735 1.536 6.332 0 3.55-1.536 6.333a11.65 11.65 0 0 1-4.22 4.413q-2.687 1.584-6.093 1.584m0-5.23q1.823 0 3.119-.863 1.343-.864 2.013-2.447.721-1.582.72-3.79.001-2.254-.72-3.79-.67-1.582-2.013-2.398-1.296-.864-3.119-.863-1.872 0-3.214.863-1.344.816-2.062 2.399-.722 1.534-.721 3.79-.001 2.206.721 3.79.718 1.582 2.062 2.446 1.342.864 3.214.864"/></g><defs><clipPath id="a"><path fill="#fff" d="M0 0h351.648v68.943H0z"/></clipPath></defs></svg>